<?xml version="1.0" encoding="UTF-8"?><svg id="Layer_1" xmlns="http://www.w3.org/2000/svg" viewBox="0 0 725.6 108.81"><defs><style>.cls-1{fill:#fff;}.cls-2{fill:#ff3600;}</style></defs><path class="cls-2" d="m665.16,96.19c-1.47-1.09-2.38-2.75-2.72-4.99-.34-2.24-.51-6.99-.51-14.23v-1.86c-2.17-.36-2.18-1.51,0-2.33v-5.62c-.14-.09-.28-.19-.42-.28-.26-.18-.38-.42-.07-.62.2-.13.36-.25.48-.37v-1.77c-.13-.21-.27-.41-.39-.62-.44-.82-1.59-1.69.39-2.67v-.96c-.09-.03-.18-.06-.29-.08.34-.38.33-.76-.02-1.12-.23-.23-.52-.46-.83-.69.08-.05.16-.1.23-.15-.08-.25.01-.52.11-.8.41-1.23.67-2.45.81-3.67v-1.25c-.24-.3-1.02-.34-2.31-.18.13-.14.18-.29.23-.55.04-.32-.28-.6-.96-.83-.28-.17-.71-.31-1.24-.43.29-.16.49-.32.53-.47.13-.42.05-.86-.47-1.23-.78-.56-2-1.06-3.07-1.58-.8-.39-1.65-.78-.24-1.47,1.25.45,2.1.82,3.22,1.13.59.16,1.66.23,2.51.34.14-.07.31-.13.49-.2-.29-.2-.71-.38-1.37-.54-.67-.17-.91-.53-.56-.79,1.56-1.15.99-2.19,1.02-3.27.02-.73.33-1.48.69-2.22.1-.2.22-.41.61-.6-.03-.11-.07-.21-.1-.32-.03-.11-.12-.28-.43-.29-2.8-.15-1.87-.67-1.25-1.17.05-.04.07-.08.1-.12.07-.08.15-.16.22-.25-1.63-.41-3.23-1.06-3.11-1.35-.32-1.07,1.13-2.11,3.85-3.16.52-.2,1.06-.33,1.64-.43v-.35c0-1.1,0-2.14.02-3.12-.17-.97-.33-1.94-.46-2.91-.02-.15.39-.33.27-.47-.19-.23-.34-.51-1.04-.63-2.22-.38-2.35-.45-.37-1.13.11-.04.19-.08.31-.11.43-.11.92-.25,1.42-.4.12-2.74.31-4.67.56-5.77.48-2.04,1.42-3.43,2.82-4.18,1.4-.75,4.37-1.12,8.9-1.12h1.97v-3.13h-42.13v3.13h1.97c4.66,0,7.7.41,9.1,1.22,1.4.82,2.31,2.29,2.72,4.42.23,1.2.39,3.23.5,6.08.04.2.03.4.02.59.03.86.05,1.8.06,2.8.12.1.25.2.38.28-.13.08-.25.16-.37.25.02,1.29.03,2.68.03,4.19v30.06c.35.3.53.63,0,1.02v14.1c0,7.7-.2,12.6-.61,14.71-.41,2.11-1.37,3.66-2.89,4.65-1.52,1-4.25,1.49-8.19,1.49h-2.72v3.13h7.35s0,0,0,0c0,0,0,0,0,0h.9c.17-.12.32-.33.45-.65.16-.23.29-.55.39-.96.17.21.34.34.49.36.43.07.86-.03,1.21-.45.53-.63,1-1.58,1.48-2.42.37-.63.72-1.29,1.46-.29-.41.97-.75,1.64-1.02,2.5-.14.45-.18,1.26-.26,1.91,0,0,0,0,0,0h.43c.1-.19.2-.42.28-.72.14-.51.5-.72.77-.48,1.19,1.09,2.21.58,3.29.52.73-.04,1.48.14,2.23.35.18.05.36.12.54.33h.34s.03-.01.05-.02c.11-.03.27-.11.28-.34.06-2.11.61-1.46,1.13-1.03.04.03.08.04.12.07.08.05.17.1.25.15.35-1.25.95-2.5,1.25-2.44,1.05-.32,2.14.69,3.27,2.65.17.3.3.62.4.96h3.49c.97-.2,1.95-.4,2.93-.57.15-.03.34.26.47.17.22-.16.5-.3.6-.83.31-1.69.38-1.8,1.11-.37.04.08.08.13.12.23.16.41.38.9.58,1.37h5.73v-3.13h-2.72c-4.17,0-6.99-.54-8.46-1.63Zm-7.52-14.38c-.54.04-1.22-.47-1.91-.76.66-.35,1.21-.84,1.68-.86,2.25-.11,1.81.37,1.79.68-.02.32.9.76-1.57.94Z"/><path class="cls-2" d="m717.93,100.95h5.93c.08-.1.16-.2.24-.3.17-.21.41-.32.61-.1.18.19.34.31.5.4h.38v-3.13h-2.72c-4.17,0-6.99-.54-8.46-1.63-1.47-1.09-2.38-2.75-2.72-4.99-.01-.08-.02-.17-.03-.25-1.75-.28-3.63-.61-3.67-1.3-.07-1.15.08-2.31.22-3.46.16-1.4.4-2.8.62-4.2.06-.42.13-.84.19-1.25-.22-.05-.46-.09-.68-.14-1.92-.43-1.95-1.7-.14-2.42.44-.17.87-.35,1.3-.53.02-.16.05-.31.07-.47.19-.03.37-.06.56-.1.16.04.33.07.49.11.19-.07.38-.15.57-.22h0v-.42c-1.15-.39-.87-.99-.85-1.59,0-.14,0-.28.01-.42-.77-.75-1.53-1.51-2.25-2.26-.18-.2-.27-.44-.02-.62,1.26-.92.52-1.81.2-2.75-.31-.91-1.24-1.91.77-2.82.19-.09.35-.18.49-.27-.26-.21-.59-.42-1.01-.61.27-.36.28-.74.03-1.12-.16-.25-.37-.49-.59-.74.07-.04.12-.09.18-.13-.05-.26.03-.52.11-.79.46-1.53.75-3.07.88-4.61.04-.52-.57-.67-1.78-.57.1-.13.15-.28.19-.54.04-.32-.19-.61-.68-.89-.21-.19-.52-.35-.91-.5.22-.14.38-.3.42-.44.12-.42.07-.86-.3-1.26-.56-.6-1.45-1.18-2.23-1.76-.58-.44-1.2-.87-.12-1.48.92.52,1.54.94,2.36,1.32.43.2,1.23.33,1.87.49.11-.06.24-.12.37-.17-.21-.21-.51-.42-1-.62-.49-.2-.66-.58-.38-.82,1.22-1.05.84-2.13.91-3.2.05-.73.31-1.45.61-2.18.08-.2.18-.4.49-.56-.02-.11-.04-.22-.06-.33-.02-.11-.08-.28-.31-.32-2.09-.32-1.37-.78-.89-1.25.04-.04.05-.08.08-.11.06-.08.12-.15.18-.23-1.2-.5-2.37-1.25-2.27-1.53-.19-1.08.94-2.04,3.02-2.93.45-.19.92-.31,1.42-.36.09-.31.16-.61.22-.92.14-.71-.13-1.42-.19-2.13-.1-1.11-.18-2.22-.24-3.33,0-.15.3-.31.22-.45-.13-.24-.23-.53-.75-.69-1.64-.51-1.74-.59-.23-1.15.08-.03.14-.07.24-.09.54-.14,1.21-.35,1.8-.52.06-5.67.29-9.37.69-11.08.48-2.04,1.42-3.43,2.82-4.18,1.4-.75,4.37-1.12,8.9-1.12h1.97v-3.13h-9.88c-.14.22-.26.51-.35.88-.17-.21-.34-.34-.49-.36-.43-.07-.86.03-1.21.45-.53.63-1,1.58-1.48,2.42-.37.63-.72,1.29-1.46.29.41-.97.75-1.64,1.02-2.5.09-.29.14-.73.18-1.18h-.65c-.15.5-.5.71-.76.46-.24-.22-.47-.36-.69-.46h-6.05c-.11,1.66-.63,1.06-1.11.66-.04-.03-.08-.04-.12-.07-.08-.05-.17-.1-.25-.15-.35,1.25-.95,2.5-1.25,2.44-1.05.32-2.14-.69-3.27-2.65-.04-.07-.07-.15-.11-.22h-7.57c-.09.12-.17.26-.22.5-.31,1.69-.38,1.8-1.11.37-.04-.08-.08-.13-.12-.23-.08-.2-.17-.41-.27-.64h-4.92v3.13h1.97c4.66,0,7.7.41,9.1,1.22,1.4.82,2.31,2.29,2.72,4.42.41,2.13.61,6.86.61,14.2v45.18c0,7.7-.2,12.6-.61,14.71-.41,2.11-1.37,3.66-2.89,4.65-1.52,1-4.25,1.49-8.19,1.49h-2.72v3.13h32.64c.39-.86,1.14-.89,1.82,0Zm-13.39-13.99c-.4,0-.89-.54-1.39-.87.51-.31.94-.76,1.3-.76,1.69.02,1.34.47,1.31.79-.03.32.64.82-1.21.84Zm3.69,12.87c-.66.29-1.33.49-2,.6-.09.01-.37-.75-.38-.97,0-.46.07-1.06.19-1.13.32-.19.68-.13,1.02-.18.29-.03.57-.14.86-.07.13.03.3.43.45.66-.04.38-.05,1.04-.14,1.08Zm1.84.14c-.32.01-.73.74-.98-1.11-.05-.4.43-.95.7-1.49.37.47.87.84.91,1.2.18,1.68-.31,1.38-.63,1.39Z"/><path class="cls-1" d="m27.72,9.7c.64.07,1.29.14,1.74.19.23-.52.41-1.48.72-1.53.89-.12,2-.15,2.7.3.81.52,1.44.59,2.36.57,1.57-.03,3.15.31,4.71.58,1.13.2,2.22.6,3.34.82.25.05.56-.36.86-.41.37-.06.83-.06,1.11.12.16.1.07.64.03.97-.06.42-.21.83-.24,1.25,0,.06.53.29.6.22.3-.31.64-.66.74-1.06.42-1.56,1.99-2.31,3.43-1.65.44.2,1.22.38,1.45.15,1.47-1.42,3.54-.81,5.17-1.62.26-.13.66.06.99.04.62-.04,1.23-.14,1.84-.2.4-.04.97-.23,1.19-.04.88.75,1.46.14,2.3-.12,1.43-.44,3.02-.5,4.55-.49,2.32.02,4.65.12,6.94.43,1.55.21,3.03.85,4.55,1.3.23.07.46.27.67.23,3.95-.68,6.88,1.54,9.89,3.49,1.49.96,2.89,1.94,3.58,3.8.45,1.23,1.69,2.15,2.42,3.3,1.28,2.04,1.41,4.34,1.34,6.68-.01.5.19,1.02.35,1.51.42,1.28.09,1.68-1.21,1.61-.5-.03-1.02.26-1.53.41.34.34.71.64,1,1.02.33.43.72.89.85,1.39.57,2.15-.48,4.01-1.39,5.78-1.88,3.68-4.26,7.04-7.63,9.53-3.31,2.45-6.97,3.67-11.15,2.69-.41-.1-.87-.11-1.29-.04-.29.05-.7.28-.76.51-.06.21.25.54.44.79,1.19,1.56,2.95.85,4.45,1.02,6.01.67,11.53,2.72,16.23,6.39,6.17,4.82,8.53,11.35,7.3,19.15-.47,2.97-.9,5.94-2.5,8.56-1.41,2.3-2.96,4.49-5.34,5.96-1.71,1.06-3.28,2.36-5,3.4-1.27.76-2.7,1.27-4.06,1.87-1.54.68-2.99.45-4.11-.54-.41.72-.63,1.63-1.07,1.76-1.37.39-2.9.87-4.17-.15-.41-.33-.28-1.24-.54-1.83-.78-1.72-.76-2.03,1.08-2.33,3.91-.62,6.47-3.21,8.99-5.87,2.48-2.61,3.28-6.05,4.6-9.27.81-1.98,1.47-3.71.37-5.8-.23-.43.31-1.71.84-2.02,1.92-1.13,1.98-1.04.3-2.59.42-.31.91-.56,1.22-.95.18-.23.09-.67.12-1.02-.31.03-.62.07-.92.11-.04,0-.07.06-.11.09-1.99,1.57-2.38,1.44-2.93-1.04-.9-4.09-3.34-6.97-6.88-9.06-1.02-.6-1.9-1.46-3.09-2.39-1.32.7-2.55-.55-3.99-1.14-.82-.34-1.88-.51-2.72-.31-3.05.71-5.9.38-8.61-1.19-.4-.23-.93-.52-1.33-.43-2.88.61-5.11-1.08-7.54-2.03-1.3-.51-2.48-1.29-3.76-1.85-1.36-.6-2.25-.08-2.24,1.39.05,9.67.08,19.33.27,29,.04,1.99.71,3.97,1.13,5.95.38,1.85,1.86,2.42,3.43,2.88,2.55.74,3.65,2.52,3.07,5.17-.25,1.15.03,1.8,1.14,2.27,3.91,1.65,7.94,2.16,12.14,1.5.59-.09,1.24.16,1.86.26-.15.54-.3,1.09-.46,1.63-.42,1.46-1.17,2.08-2.75,1.36-.46-.21-1.2.27-1.81.31-1.48.11-2.97.3-4.44.19-4.48-.33-8.96-.8-13.44-1.2-1.55-.14-2.99-1.18-4.66-.51-.09.04-.8-.83-.77-1.23.12-1.29-.65-1.53-1.58-1.52-.94.02-1.68.37-1.69,1.54-.02,1.56-1.39,2.28-2.89,1.69-.7-.28-1.51-.3-2.27-.42-.47-.08-1.02,0-1.41-.22-1.41-.8-2.84-.38-4.2-.03-.5.13-.86.85-1.26,1.32-.26.31-.4.85-.7.93-.3.08-.73-.26-1.08-.45-.16-.09-.25-.29-.37-.44-.35-.41-.71-.82-1.06-1.23.57-.39,1.14-.79,1.73-1.16.15-.09.39-.15.56-.1,3.01.8,5.06-1.69,7.66-2.32,1.02-.25,1.78-1.68,2.56-2.65.15-.19-.2-.74-.26-1.14-.09-.61-.42-1.42-.15-1.81,1.63-2.43,1.98-5.08,1.67-7.9-.02-.19-.13-.45-.04-.57,1.6-2.16-.33-4.33.02-6.55.36-2.26.09-4.63.08-6.95,0-1.09-.39-2.23.59-3.14.09-.09.08-.38.02-.54-1.27-3.29-.32-6.66-.4-10-.04-1.49-.13-2.98-.13-4.48-.02-4.88,0-9.77-.02-14.65-.02-3.64-.03-7.29-.16-10.92-.02-.63-.5-1.37-.99-1.82-1-.93-1.3-1.89-.94-3.24.16-.62-.06-1.54-.45-2.06-.91-1.24-2.44-1.99-2.6-3.83-.04-.44-.92-.96-1.51-1.17-1.3-.47-2.66-.75-3.98-1.15-.28-.09-.51-.35-.77-.54.04-.18.09-.36.13-.54Zm21.19,25.61c.07,0,.15,0,.22.01,0,2.12-.01,4.24,0,6.37.02,1.65.81,2.83,2.27,3.59,4.82,2.51,9.88,4.12,15.35,4.23,7.22.15,13.01-2.79,15.84-9.64,2.19-5.3,2.54-10.86,1.1-16.48-1.04-4.04-3.55-7-7.08-8.92-3.91-2.12-8.21-2.96-12.72-2.8-2.53.09-4.89.67-7.09,1.78-4.68,2.36-6.31,6.74-7.03,11.48-.52,3.43-.59,6.92-.86,10.39Z"/><path class="cls-1" d="m302.12,5.17c.26-.04.4-.08.54-.08.66-.03,1.32-.05,1.98-.08-.31.54-.6,1.09-.94,1.61-1.27,1.94-2.04,4.06-2.03,6.38.09,17.74.28,35.49.25,53.23,0,2.67-.05,5.33.13,8,.07,1.03.34,1.59,1.43,1.78.55.09,1.02.6,1.53.92-.29.45-.66.87-.85,1.36-.25.66-.59,1.41-.49,2.05.23,1.47.8,2.87-.32,4.28-.47.6-.18,1.11.7,1.01.38-.04.89-.2,1.11-.02.52.41,1.24.98,1.27,1.51.04.93-.83.73-1.53.73-.81,0-1.61.27-2.42.36-.61.06-1.23,0-1.84.04-.33.02-.65.15-.98.22.16.32.24.82.49.93.5.23,1.1.31,1.66.33.9.03,1.28.24,1.16,1.3-.09.78.11,1.8.59,2.38,1.28,1.54,2.76,2.94,4.23,4.31.26.24.92-.03,1.36.1.8.23,2.19.49,2.24.89.17,1.22-1.07,1.31-1.95,1.34-.89.04-1.8-.19-2.7-.32-1.78-.27-3.56-.71-5.35-.79-2.22-.11-4.45.03-6.67.14-1.2.06-2.38.39-3.58.39-.67,0-1.34-.43-2.01-.66.33-.5.65-1,1-1.49.08-.11.31-.14.34-.25.72-2.3,1.55-4.58,2.06-6.93.21-.96-1.89-1.79-2.85-1.13-2.66,1.84-5.27,3.74-7.87,5.66-1.48,1.09-2.96,2.19-4.3,3.43-.66.61-1.16,1.5-1.46,2.36-.55,1.58-1.51,2.21-2.95,1.54-2.88-1.34-5.8-2.61-8.58-4.14-5.21-2.87-9.33-6.94-12.72-11.82-2.11-3.04-3.17-6.48-4.15-9.96-.25-.9-.06-1.55.91-1.98,1.37-.6,1.39-1.17.38-2.22-.6-.62-1.15-1.32-1.53-2.08-.16-.31.04-1.1.32-1.27,1.02-.62.99-1.26.2-1.94-.86-.73-1.04-1.61-.75-2.61.72-2.45,1.23-5.01,2.31-7.3.82-1.75,2.39-3.15,3.62-4.71.21-.26.48-.51.57-.82.38-1.29,1.07-2.13,2.54-2.15.24,0,.61-.35.68-.6.5-1.86,1.72-2.8,3.59-3.04.36-.05.68-.33,1.02-.51,1.87-.98,3.66-2.22,5.64-2.87,2.09-.69,4.37-1.14,6.55-1.11,2.77.05,5.52.68,8.28,1.09.41.06.86.26,1.18.52.91.76,1.67,1.58,2.81.16.47-.58,1.19-.08,1.03.68-.26,1.25.43,1.76,1.28,2.45.72.59,1.23,1.55,1.6,2.45.44,1.07,1.94,1.81,2.93,1.16.2-.13.27-.77.13-1.03-.96-1.73-.88-1.89,1.14-2.05.37-.03.82-.09,1.08-.32.36-.32.88-.92.78-1.2-.16-.44-.74-.78-1.22-1.02-.32-.16-.78-.01-1.14-.13-.98-.33-1.64-.92-1.68-2.09-.15-4.49-.37-8.98-.53-13.48-.1-2.81-1.27-4.17-4.07-4.71-.89-.17-1.8-.36-2.64-.71-.41-.17-.94-.76-.91-1.11.03-.38.63-.75,1.06-1.02.31-.2.73-.26,1.1-.32,3.1-.44,5.4-2.04,6.98-4.72,1.73-2.94,3.37-5.94,5.24-8.78.83-1.25,2.04-2.31,3.24-3.24,1.5-1.16,3.09-2.28,4.8-3.06.86-.39,2.08,0,3.14.04-.4.88-.7,1.81-1.21,2.61-.81,1.26-1.89,1.04-3.03.37-2-1.18-2.76-.75-2.98,1.75Zm-24.59,84.35c4.59-.23,8.66-1.69,12.47-3.86,2.29-1.31,3.32-5.11,2.25-7.57-.16-.37-.5-.71-.85-.95-2.38-1.62-2.46-4.6-.25-6.42.57-.47,1.18-1.32,1.17-1.99-.1-5.17-.34-10.33-.54-15.49,0-.23-.05-.54-.2-.67-1.05-.9-2.03-1.96-3.23-2.58-1.9-.98-4.15-1.35-5.88-2.53-2.33-1.58-4.99-.91-7.44-1.75-3.14-1.08-6.16-.07-8.98,1.86-3.37,2.31-6,5.29-7.14,9.03-2.37,7.78-2.15,15.55,2.05,22.8,3.7,6.38,9.38,9.62,16.58,10.1Z"/><path class="cls-1" d="m356.55,98.61c0-.93-.11-1.6.03-2.21.13-.53.44-1.15.86-1.47,1.83-1.38,3.71-2.71,5.63-3.97.62-.4,1.41-.54,2.23-.83-.84-.94-.43-1.8.11-2.79,1.59-2.88,2.01-6.13,2.33-9.32.67-6.58-.31-12.99-3.36-18.87-4.49-8.62-13.18-12.79-22.78-10.06-2.93.83-5.49,2.45-7.32,4.96-.51.7-.76,1.74-.78,2.63-.04,2.56.11,5.12.17,7.68.16,7.49.34,14.98.42,22.48.02,2,.63,3.69,1.89,5.18.6.72.78,1.35.15,2.2-.22.3-.15,1.18.12,1.41.64.54,1,.01,1.22-.63.29-.85.79-.82,1.59-.54,2.11.75,4.26,1.37,6.42,1.98.69.19,1.46.09,2.15.28,1.45.4,1.4,1.11.83,2.46-1.22,2.88-3.51,1.77-5.43,1.63-2.06-.14-4.11-.63-6.12-1.14-.62-.16-1.3-.76-1.62-1.34-.72-1.3-1.22-1.37-2.2-.33-.41.43-1.33.8-1.83.64-2.58-.83-5.1-.09-7.59.25-1.43.2-2.78,1.01-4.17,1.52-.35.13-.82.39-1.08.27-.67-.31-1.25-.8-1.87-1.22.4-.5.7-1.19,1.21-1.46,2.7-1.41,3.88-3.84,4.91-6.53.97-2.52,1.02-5.09,1.07-7.7.05-2.71.03-5.41.09-8.12.01-.56.25-1.12.35-1.68.08-.42.29-.91.16-1.26-1.26-3.22-.21-6.51-.36-9.76-.02-.39.38-.78.44-1.19.07-.51.08-1.06-.03-1.56-.17-.77-.67-1.5-.69-2.27-.37-10.29-.69-20.58-1-30.87-.04-1.43-.95-2.25-2.06-2.73-1.31-.57-2.78-.79-4.13-1.3-.55-.21-.96-.81-1.43-1.23.5-.37.97-.99,1.51-1.07,4.04-.55,6.47-3.15,8.49-6.37.64-1.01.75-2.49,2.33-2.72.14-.02.39-.45.34-.54-1.05-1.68.41-2.67,1.18-3.64,2.27-2.85,4.93-5.31,8.33-6.82,1.12-.5,2.47-1.09,3.28,0,.29.4-.74,1.83-1.26,2.73-.23.4-.65.78-1.07.95-4.04,1.6-4.76,5.19-5.19,8.84-.25,2.15-.04,4.35-.11,6.52-.03.84-.28,1.67-.43,2.51-.04.23-.18.5-.11.69,1.21,3.08.61,6.3.66,9.45.05,2.86-.61,5.73-.81,8.61-.07.97.31,1.98.48,2.97.18,1.06.38,2.12.53,3.19.06.43-.04.89.08,1.3.15.51.35,1.15.74,1.41.23.15.97-.24,1.31-.56.92-.88,1.72-1.9,2.62-2.8,1.46-1.45,3.01-2.81,4.44-4.3,1.09-1.13,2.02-2.41,3.08-3.57.37-.4,1.17-1.01,1.33-.9.58.4,1.36,1.08,1.35,1.65,0,1.31.58,1.24,1.53,1.17,5.47-.36,10.55.76,14.97,4.15.43.33.73,1.02.8,1.58.11.85.26,1.31,1.24.93,1.16-.46,1.45.26,1.26,1.16-.24,1.12.16,1.68,1.07,2.37,1.69,1.27,3.19,2.79,4.71,4.27.43.42.72,1.04.94,1.62.68,1.79,1.32,3.59,1.92,5.4.54,1.64.97,3.24.64,5.08-.2,1.11.41,2.33-.89,3.15-.12.08-.11.61.02.79.57.78.16,1.31-.3,1.93-.73.98-.54,1.45.72,1.58,1.07.11,1.35.61,1.09,1.54-1.23,4.42-2.56,8.83-5.36,12.56-2,2.66-4.1,5.26-7.14,6.88-.58.31-1.09.81-1.55,1.29-.72.74-1.47,1.14-2.58.92-.46-.09-1.08.25-1.54.54-1.08.67-2.15.61-3.21.33Z"/><path class="cls-1" d="m533.91,70.84c1.89.16,1.72,1.32,1.73,2.61.04,5.84.29,11.68.29,17.52,0,3.38,3.05,5.73,5.78,5.58.53-.03,1.23-.16,1.55.11.64.54,1.47,1.3,1.51,2,.06,1.12-1.02,1.37-2.03,1.25-2.02-.25-4.03-.5-6.04-.78-4.58-.64-9.14-.29-13.7.28-1.25.15-2.5.21-3.76.27-.96.05-1.84-.25-1.85-1.36-.01-1.15.85-1.63,1.88-1.5,2.54.31,4.27-.96,5.65-2.82.46-.62.82-1.45.9-2.21.89-8.05.66-16.12.37-24.19-.07-1.83-.21-3.67-.4-5.49-.67-6.35-6.57-10.99-13.87-8-1.98.81-4.19,1.34-5.33,3.49-.13.25-.54.42-.85.51-1.83.52-2.2,1.98-2.35,3.59-.16,1.76-.34,3.52-.5,5.28-.03.28,0,.58.03.86.19,1.95.52,3.91.56,5.86.12,5.94.18,11.89.15,17.84,0,.72-.72,1.44-1.19,2.33,2.04.79,4.35,1.69,6.67,2.58.62.24,1.4.25,1.86.66.46.41.99,1.38.8,1.73-.28.51-1.18.96-1.8.94-1.39-.04-2.76-.5-4.15-.59-2.69-.18-5.4-.33-8.09-.3-3.86.05-7.71.25-11.57.45-.86.04-1.71.49-2.55.47-.59-.02-1.17-.51-1.76-.8.37-.48.64-1.19,1.12-1.41,1-.44,2.12-.61,3.18-.92,1.28-.38,2.55-.82,3.84-1.17.89-.24,1.8-.42,2.71-.49.86-.06,1.2-.24.71-1.13-.21-.39-.3-.9-.29-1.35.12-5.6.27-11.2.43-16.8.02-.59.2-1.18.31-1.77.47.23.92.55,1.42.65.56.11,1.19.14,1.72-.02.26-.08.61-.87.51-.99-.42-.48-.94-1.06-1.51-1.17-1.57-.32-2.6-1.58-2.57-3.15.06-3.33.01-6.66,0-9.98,0-.77-.2-1.58-.03-2.31.49-2.22-.87-3.35-2.43-4.31-1.38-.84-2.74-.42-4.11.31-.48.25-1.48.19-1.85-.15-.73-.66-.23-1.35.42-1.94,2.28-2.06,4.53-4.15,6.77-6.25.66-.62,1.18-.67,1.86-.01.43.42.98.74,1.53,1.01,2.23,1.08,3.97,2.55,5.18,4.82.98,1.84,1.46,3.7,1.67,5.71.04.37.34.9.63,1,.29.1.82-.17,1.09-.43,3.97-3.74,7.94-7.5,11.87-11.29.85-.81,1.61-1.4,2.75-.52.2.16.57.23.82.17,3-.72,5.74.32,8.12,1.81,1.49.93,3.03,2.05,4.3,3.27,2.99,2.89,3.83,6.68,3.57,10.76-.11,1.73-.06,3.47-.1,5.2q-.06,2.69-1.57,4.67Z"/><path class="cls-1" d="m396.52,53.64c-.41.53-.82,1.06-1.29,1.67.23.18.42.4.66.5,1.12.48.87,1.14.22,1.78-.79.78-1.8,1.39-2.43,2.27-4.83,6.8-5.18,15.76,1.21,22.1.54.53.71,1.42,1.17,2.38,2.2-.14,4.03,1.45,5.6,3.1,1.34,1.4,2.52,1.96,4.52,1.93,2.51-.04,5.03.96,7.56,1.06,4.49.17,8.08-2.38,9.84-6.55.24-.58.51-1.15.78-1.71.47-.97,1.15-1.5,2.32-1.28.38.07.81-.15,1.24-.24-.12-.32-.14-.48-.19-.49-1.04-.24-2.25-.2-2.34-1.77-.07-1.07-.15-2.01.21-3.16.44-1.43.03-3.21-.33-4.76-.2-.87-.56-1.45.41-2.06.36-.23.47-.87.69-1.32-.37-.16-.75-.3-1.11-.48-1.39-.7-2.77-1.42-4.15-2.14-.68-.36-1.34-.77-2.03-1.11-.88-.43-1.18-1.05-.88-1.93.18-.08.26-.13.35-.15.48-.08.97-.15,1.45-.22-.06-.22-.06-.56-.19-.64-.52-.29-1.27-.83-1.59-.65-1.22.67-1.58.08-2.25-.84-.83-1.15-2.04-2.02-3.1-2.98-.15-.14-.43-.16-.66-.19-1.07-.13-2.18-.09-3.19-.39-3.31-1-6.57-1.61-9.82.23-.37.21-.95.08-1.74.12.8-1.1,1.39-1.95.29-2.85-.06-.05.4-1.03.81-1.31,1.22-.87,2.46-1.75,3.82-2.35,1.73-.77,2.17-2.23,2.42-3.8.26-1.7.59-1.96,2.24-1.68,2.02.34,3.99,1.21,6.12.47.33-.11,1.04.19,1.23.5,1.29,2.14,3.85,2.51,5.56,4.05.24.21.9.22,1.22.04,1.48-.82,2.46-.03,3.2,1.05,1.09,1.59,2.27,2.96,4.19,3.58.96.31,1.18,1.17.54,1.83-.89.94-.5,1.49.13,2.32,2.5,3.27,3.89,6.95,3.9,11.12,0,1.33.56,2.67.45,3.97-.34,3.91-.99,7.8-3.07,11.22-1.95,3.21-4.51,5.94-7.75,7.88-1.84,1.1-3.98,1.69-5.85,2.75-1.02.58-1.92,1.57-2.56,2.58-.74,1.17-1.12,2.56-1.68,3.84-.53,1.21-1.37,1.67-2.68,1.14-.98-.4-2.38-.41-2.93-1.11-1.17-1.48-2.83-1.37-4.2-2.05-4.74-2.35-9.28-5.18-12.83-9.26-.3-.35-.46-.83-.68-1.25-.15-.29-.21-.74-.44-.86-2.72-1.4-3.28-4.26-4.55-6.64-.07-.13-.14-.28-.13-.41.17-1.7.63-3.45-.77-4.91,1.05-2.35-.44-4.79.46-7.26,1-2.75,2.12-5.32,4.05-7.55,1.03-1.19,1.76-2.61,3.52-2.99.32-.07.58-.84.69-1.33.21-.93.55-1.6,1.62-1.77.37-.06.67-.48,1.02-.71.43-.28.89-.54,1.33-.8.13.16.27.32.4.48Z"/><path class="cls-1" d="m223.94,48.57c2.38-1.63,4.31-.25,5.17,3.1,2.55-.04,2.85.29,2.1,2.55.33-.14.6-.18.77-.33.8-.67,1.52-.52,2.16.19,6.03,6.63,8.35,14.22,6.44,23.12-.97,4.53-3.07,8.35-6.31,11.48-2.63,2.54-5.58,4.78-9.3,5.64-1.65.38-2.58,1.65-3.23,3.1-.5,1.1-.88,2.25-1.29,3.38-.52,1.41-1.23,1.81-2.69,1.35-1.27-.41-2.54-.87-3.76-1.41-.97-.43-.89-1.1-.26-1.86.22-.26.2-.72.29-1.09-.47.11-1.25.09-1.36.35-.69,1.64-1.71,1.19-2.82.61-5.59-2.93-10.47-6.74-14.44-11.65-.54-.67-1.07-1.4-1.39-2.18-.18-.44-.03-1.1.17-1.57.18-.44.63-.76,1.06-1.25-2.61.58-2.81.42-3.1-2.24-.3-2.77-.72-5.53-.91-8.3-.13-1.93.03-1.95,1.91-1.91.24,0,.49-.2.74-.3-.16-.25-.25-.61-.48-.74-1.64-.96-1.59-.97-.6-2.53.66-1.04,1.02-2.25,1.57-3.37.4-.82.77-1.68,1.33-2.38,3.56-4.51,7.86-8.1,13.17-10.39,2.08-.9,3.55-2.1,3.33-4.66-.04-.53.47-1.51.86-1.58.58-.1,1.49.23,1.87.7.92,1.14,1.76,1.82,3.12.68.13-.11.38-.18.54-.14,1.38.34,2.77.65,4.1,1.1.98.33,1.95.84,1.23,2.55Zm-3.47,41.96c4.42.23,7.9-1.45,10.1-5.28,2.13-3.71,3.23-7.75,2.89-12.09-.29-3.76-1.55-7.17-4.01-10.05-3.85-4.53-8.98-6.89-14.6-8.31-2.4-.6-4.94-.89-7.25.3-3.87,1.99-7,4.68-8.64,8.95-2.01,5.26-1.6,10.28,1.27,15,1.93,3.18,4.86,5.41,8.06,7.35,3.78,2.29,7.76,3.82,12.18,4.13Z"/><path class="cls-1" d="m571.91,101.29c.47-.55.74-.81.93-1.11.2-.33.33-.71.49-1.07-.43-.13-.86-.28-1.3-.38-.12-.03-.31.05-.4.14-2.07,2.12-4.21.75-6.29.07-1.69-.55-3.38-1.15-4.98-1.93-.77-.37-1.27-1.26-1.95-1.84-1.98-1.69-4.1-3.22-5.95-5.03-2.92-2.86-4.66-6.47-5.86-10.34-.52-1.67-1.11-3.33-1.5-5.04-.17-.76.13-1.61.15-2.42.06-2.2.4-4.3.87-6.49,1.3-6.08,4.76-10.45,9.48-14.01,3.04-2.29,6.45-4.09,9.45-6.42,2.6-2.02,5.11-1.54,7.74-.56,2.29.86,4.53,1.86,6.8,2.8.09.04.19.06.27.12,3.48,2.39,6.98,4.76,10.41,7.21,1.16.83,1.14,1.73.12,2.65-2.32,2.11-4.66,4.2-7,6.29-1.41,1.26-2.67,1.03-3.36-.69-.12-.31.23-1.04.57-1.26,1.18-.77.88-1.41.01-2.15-1.5-1.29-2.93-2.67-4.5-3.89-.89-.69-1.98-1.12-2.97-1.68-1.28-.74-2.55-1.51-3.84-2.24-2.02-1.14-4.24-1.1-6.36-.66-2.07.43-4.07,1.21-6.05,1.97-1.38.53-1.52,1.33-.96,2.69.23.56.18,1.31.05,1.93-.58,2.63-1.46,5.22-1.82,7.87-.69,5.2.58,10.08,3.22,14.58,1.08,1.85,2.7,1.74,4.25.06,2.61-2.84,5.29-5.62,7.99-8.38.36-.36,1-.53,1.54-.61,1.5-.22,2.16-.91,2.44-2.38.13-.7.53-1.42,1-1.96.2-.24.9-.1,1.36-.05.62.07,1.24.32,1.85.28.33-.02.63-.48.95-.73-.26-.31-.53-.62-.79-.94-.27-.34-.79-.74-.74-1.02.08-.37.56-.82.95-.92.3-.07.75.31,1.09.55.26.18.43.52.7.69,1.19.73,1.22,1.13.22,2.12-3.59,3.56-7.16,7.13-10.72,10.72-.3.3-.57.68-.7,1.07-.5,1.51-1.58,2.23-3.07,2.5-.91.17-2.02.11-1.96,1.57,0,.21-.41.4-.51.65-.19.46-.33.95-.39,1.44-.04.31.22.66.17.97-.18,1.15.46,1.31,1.37,1.28.47-.02,1.1-.08,1.39.18.97.88,1.78.72,2.88.18.48-.24,1.5.19,2.04.62,1,.78,1.88,1.24,3.14.59.79-.41,1.43.03,1.68.85.41,1.36,1.28,1.46,2.5,1.16.91-.22,1.93-.04,2.83-.29,1.69-.46,3.34-1.07,4.98-1.7.48-.18.82-.69,1.28-.94.68-.37,1.41-.64,2.12-.95.17.91.5,1.83.46,2.74-.03.83-.63.56-1.17.25-.33-.19-.77-.2-1.16-.29-.07.35-.27.72-.2,1.03.25,1.19-.72,1.51-1.38,1.96-1.95,1.33-3.97,2.57-5.95,3.86-.32.21-.67.42-.91.71-.23.27-.35.64-.53.96.33.13.65.33.99.38,1.24.19,4,2.58,4.3,3.77.3,1.21-.29,2.42-1.4,3.06-1.17.67-1.91.06-2.61-.76-.35-.4-.74-.77-1.04-1.21-.9-1.33-1.77-2.3-3.68-1.43-.68.31-1.84-.43-3.04-.76Z"/><path class="cls-1" d="m173.09,91.85c.2-.77.33-1.28.48-1.83-1.33.26-1.93,1.06-1.45,2.05.58,1.19.11,1.81-.98,2-2.07.35-3.32,1.59-4.25,3.36-.55,1.05-1.27,1.84-2.38.43-.16-.2-.69-.35-.91-.24-1.37.68-2.8,1.27-3.72,2.63-.16.24-.83.38-1.12.26-5.73-2.47-10.95-5.75-15.34-10.2-2.58-2.62-5.1-5.45-6-9.08-1.39-5.59-2.05-11.41.79-16.71,2.68-5,6.32-9.38,11.47-12.16,1.33-.72,2.78-1.25,4.21-1.77,1.68-.62,3.03-2.5,3.26-4.43.08-.68.43-1.72.89-1.87.6-.2,1.47.26,2.16.56.42.18.76.58,1.11.92,1.18,1.16,1.58,1.07,2.52-.28.22-.32,1.03-.56,1.37-.4,2.83,1.32,5.69,2.6,8.38,4.18,3.15,1.85,5.87,4.36,7.83,7.42,1.24,1.94,2.78,3.84,3.02,6.38.11,1.15,1.22,2.17,1.46,3.34.39,1.88.59,3.83.57,5.74,0,.7-.71,1.52-1.3,2.07-1.18,1.09-1.67,2.1-.78,3.41.99,1.47.69,2.73-.01,4.03-1.61,2.98-3.24,5.96-6.07,8.01-.67.49-1.54.71-2.32,1.03-.88.36-1.77.7-2.88,1.14Zm5.57-17.6c-.1-5.99-2.61-10.81-7.33-14.31-3.74-2.78-8.01-4.6-12.67-5.37-2.69-.44-5.21-.11-7.5,1.4-2.8,1.85-5.12,4.01-6.61,7.24-3.2,6.94-2,13,2.72,18.23,4.46,4.96,10.23,7.86,16.81,8.93,4.2.68,8.01-.15,10.73-3.8,2.72-3.65,3.89-7.81,3.85-12.32Z"/><path class="cls-1" d="m123.95,24.64c-.07.2-.24.5-.28.82-.07.57-.12,1.16-.07,1.73.06.66.34,1.31.35,1.97.05,3.26.04,6.53.06,9.8.04,4.59.15,9.18.1,13.77-.03,2.42-.35,4.85-.52,7.27-.02.28-.02.62.12.84.71,1.14.71,2.25.09,3.43-.14.26-.13.72.01.97.77,1.36.37,2.72.1,4.09-.07.37-.21.84-.06,1.12.57,1.01.31,1.82-.35,2.66-.59.75-.37,1.46.15,2.24.42.63.7,1.45.74,2.2.21,4.73.26,9.47.52,14.19.12,2.3,1.57,3.75,3.55,4.93,1.29.77,2.22,1.66,3.89.84.51-.25,1.59.44,2.3.88.26.16.21.83.3,1.27-.47.1-1.08.43-1.39.24-.77-.46-1.35-.48-2.11.02-.37.24-1.03.15-1.54.08-5.73-.81-11.45-1.02-17.19-.16-.46.07-.97-.23-1.45-.35.14-.53.11-1.28.45-1.54,2.98-2.32,2.98-5.59,2.98-8.88-.01-8.65,0-17.31-.04-25.96-.02-4.16-.14-8.31-.25-12.46-.2-7.5-.42-15-.64-22.5-.08-2.89-1.27-4.19-4.17-4.77-1.07-.21-2.15-.54-3.12-1.02-.94-.46-.79-1.17.09-1.59.59-.29,1.29-.36,1.92-.58,1.03-.36,2.04-.78,3.07-1.12.6-.2,1.29-.49,1.86-.37.96.2,1.36-.08,1.52-.98.07-.42.12-.98.4-1.19,1.64-1.25,1.52-3.22,2.18-4.87.62-1.55,1.33-3.17,2.39-4.43,2.21-2.62,4.64-5.09,7.87-6.5.91-.4,1.93-.65,2.92-.71,1.11-.07,1.55.78.88,1.6-.82,1-1.66,2.13-2.76,2.7-3.35,1.74-4.48,4.73-4.79,8.09-.32,3.45-.27,6.93-.34,10.39-.01.57.16,1.14.27,1.85Z"/><path class="cls-1" d="m456.06,86.35c1.26,1.63,1.35,3.48.33,5.45-.13.25.13.8.35,1.1,1.3,1.76,2.64,3.49,4.25,5.6-1.15.13-1.91.33-2.66.29-2.81-.17-5.62-.56-8.44-.6-2.53-.03-5.07.32-7.61.44-1.1.06-2.24.12-3.31-.08-1.25-.23-1.49-1.3-.5-2.09.57-.45,1.32-.78,2.04-.92.99-.2,2.02-.15,3.03-.28,1.52-.2,2.45-1.07,3.07-2.51.72-1.68.55-3.33.51-5.07-.08-4.1.11-8.21.14-12.32.02-2.85-.06-5.7-.06-8.55,0-2.27.19-4.54.07-6.8-.18-3.57-1.9-5.47-5.34-6.55-1.15-.36-2.24-1.07-3.23-1.79-.8-.57-.79-1.43-.03-2.11,1.93-1.74,3.87-3.48,5.86-5.16.75-.63,1.56-.64,2.31.18.34.37.89.54,1.34.82,1.82,1.17,3.66,2.3,5.42,3.54.43.3.67.93.89,1.45.54,1.28,1.77,1.92,3.02,1.33,1.68-.79,3.32-1.69,4.93-2.61.39-.22.65-.7.91-1.09.29-.44.48-.95.76-1.4,1.82-2.9,2.63-2.95,4.94-.5.99,1.05,2.09,2.03,3.29,2.81,1.39.91,2.65.59,3.72-.69.52-.63.9-1.39,1.47-1.98.27-.29.81-.32,1.23-.47.06.44.32.97.15,1.29-2.03,3.91-4.34,7.65-7.52,10.74-2.18,2.12-4.2,2.04-6.79-.13-1.07-.9-2.08-1.88-3.14-2.78-.35-.3-.78-.63-1.22-.7-2.3-.36-3,.17-3.03,2.51-.1,7.87-.12,15.75-.16,23.62,0,1.36.15,2.73.02,4.08-.06.63-.61,1.21-1,1.91Z"/><path class="cls-1" d="m14.27,101.91c.16.12.65.31.67.55.03.35-.18.96-.45,1.06-.84.32-1.75.47-2.64.66-.32.07-.83-.1-.97.08-1.8,2.2-4.77,1.59-6.92,2.93-.84.53-1.67,1.1-2.57,1.52-.39.19-.93.06-1.4.08.15-.4.18-.94.46-1.17,3.9-3.12,8.72-4.09,13.31-5.62.09-.03.19-.03.51-.09Z"/><path class="cls-1" d="m107.14,97.18c.51.59,1.05,1.05.99,1.17-.4.74-.95,1.4-1.44,2.09-.48-.52-.97-1.04-1.45-1.56.58-.51,1.15-1.02,1.91-1.7Z"/><path class="cls-1" d="m461.7,98.15c.67-.53,1.29-1.19,2.05-1.53.25-.11.97.5,1.3.92.51.64.26,1.27-.54,1.35-.85.09-1.73-.06-2.59-.11-.07-.21-.14-.43-.21-.64Z"/><path class="cls-1" d="m437,51.23c.7,1.77.12,2.69-.69,3.47-.21.2-.87.3-1,.16-.23-.26-.43-.86-.28-1.1.5-.81,1.16-1.52,1.97-2.53Z"/><path class="cls-1" d="m164.18,99.34c.58.69,1.26,1.18,1.2,1.51-.1.5-.73.88-1.14,1.32-.41-.47-.97-.89-1.17-1.43-.09-.23.57-.74,1.12-1.39Z"/><path class="cls-1" d="m17.5,103.75c-.45-.59-.83-.93-.96-1.35-.05-.15.63-.75.76-.69.41.19.8.55,1.02.95.07.13-.4.56-.81,1.1Z"/></svg>