<?xml version="1.0" encoding="UTF-8"?><svg id="Layer_1" xmlns="http://www.w3.org/2000/svg" viewBox="0 0 100.69 218.16"><defs><style>.cls-1{fill:#ff3600;}</style></defs><path class="cls-1" d="m75.49,136.73c-6.24-.55-9.24-4.98-12.67-8.96-2.29-2.66-4.9-5.07-7.54-7.4-1.16-1.02-2.22-.38-2.54,1.14-.08.38-.03.78-.04,1.18-.15,7.21-.33,14.42-.44,21.63-.02.92.25,1.85.39,2.78.35,2.24.92,4.48,1.01,6.74.11,2.76.03,5.43,1.75,7.88.59.84.79,2.38.45,3.35-1.46,4.3-1,8.68-1.09,13.06-.06,2.96-.37,5.93-.73,8.87-.2,1.62-.47,3.29-2.69,3.62-.46.07-.71,1.25-1.14,1.85-.33.46-.8.82-1.22,1.22-.31-.4-.78-.76-.92-1.21-1.24-4.08-2.46-8.17-3.59-12.28-.22-.8-.32-1.8-.03-2.53,1.51-3.76.62-7.38.23-11.21-.37-3.7-1.48-7.8.92-11.5,1.81-2.8,1.29-5.77-.22-8.53-1.14-2.08-.93-4.13-.73-6.38.55-6.25.89-12.52,1.05-18.79.07-2.69-1.13-2.97-3.44-1.76-5.8,3.03-9.47,8.2-13.62,12.92-.72.82-1.46,1.79-2.4,2.23-2.22,1.02-3.54,2.74-4.69,4.78-.3.54-1.19.75-1.8,1.11-.08-.63-.25-1.26-.24-1.88.09-4.29,2.55-6.89,5.68-9.66,4.2-3.71,7.48-8.46,11.28-12.64,1.34-1.47,3.2-2.48,4.57-3.93.75-.78,1.28-2.03,1.37-3.12.14-1.69.09-3.5-.36-5.12-.67-2.46-1.73-4.81-2.66-7.2-.7-1.79-1.43-3.56-.14-6.04,1.1,2.13,1.83,3.83,2.82,5.37.52.81,1.47,1.34,2.23,1.99.5-.91,1.38-1.8,1.43-2.73.27-4.79.47-9.58.41-14.38-.06-5.02-.45-10.03-.72-15.04-.02-.45-.09-1.15-.37-1.29-2.5-1.29-1.64-3.2-1.06-5.09.05-.15.06-.31.1-.46.23-1.05.47-2.09.7-3.14.89.47,1.73,1.23,2.67,1.37,5.12.78,4.38,4.46,4.35,8.05-.1,10.84-.24,21.69.12,32.52.11,3.54,1.15,7.25,4.32,9.76.71.56,1.44,1.41,1.63,2.25.64,2.84,2.75,4.43,4.67,6.3,5.23,5.11,10.33,10.36,15.47,15.56.33.33.7.69.86,1.12,1.8,4.87,6.41,6.86,10.11,9.67,2.68,2.03,5.71,3.4,7.13,6.85.75,1.82,2.38,3.29,3.62,4.91.24.31.55.58.74.91.94,1.66-1.61,9.4-3.24,10.4-4.05,2.48-8,4.82-10.8,9.12-3.45,5.29-7.97,9.88-12.06,14.75-1.08,1.29-2.48.86-3.27-.1-.49-.59-.31-1.93-.1-2.86.26-1.16.87-2.25,1.31-3.38.22-.58.26-1.26.58-1.78,3.52-5.66,7.17-11.2,11.83-16.04,1.87-1.94,3.36-4.31,4.69-6.68.41-.73,0-2.26-.54-3.12-3.29-5.24-7.84-9.37-12.35-13.51-1.67-1.53-2.65-3.13-1.05-5.57Z"/><path class="cls-1" d="m52.08,56.96c-.69-.54-1.42-1.04-2.06-1.64-.57-.53-.93-1.5-1.57-1.71-2.85-.92-2.85-2.93-2.55-5.36.55-4.4,1.03-8.82,1.28-13.25.16-2.88-.16-5.79-.23-8.69-.12-4.52-.22-9.04-.29-13.57,0-.61.36-1.25.27-1.83-.16-.98-.28-2.18-.89-2.83-1.96-2.09-2.07-2.4-.27-4.69.1-.12.17-.27.29-.37,1.21-1.07,3.04-3.28,3.53-3.01,2.25,1.22,5.01,2.54,5.06,5.66.08,4.7-.1,9.4-.26,14.1-.2,5.72-.48,11.44-.74,17.15-.29,6.54-.59,13.09-.89,19.63-.22.13-.45.26-.67.39Z"/><path class="cls-1" d="m57.36,204.64c.23,4.42-1.12,8.32-3.61,11.93-1.2,1.74-2.47,2.05-4.15.93-1.64-1.08-3.29-2.16-4.84-3.35-2.29-1.76-2.33-6.93-.17-9.88,1.75-2.38,3.39-4.86,5.29-7.11.53-.62,1.97-.98,2.78-.74,1.65.5,4.88,6.47,4.7,8.22Z"/><path class="cls-1" d="m31.5,185.32c-.86.89-1.58,2.19-2.62,2.53-.77.25-2.22-.51-2.88-1.26-1.91-2.17-3.37-4.76-5.38-6.81-1.84-1.87-4.37-3.07-6.26-4.91-1.69-1.66-3.05-3.71-4.32-5.73-.83-1.34-.21-2.81,1.15-3.36.98-.4,2.3-.18,3.41.04.49.09.97.79,1.26,1.32,2.16,3.88,5.73,5.98,9.43,8.2,3.37,2.03,5.99,5.1,6.21,9.98Z"/><path class="cls-1" d="m0,156.91c1.18-2.12,2.19-4.52,3.73-6.52,1.46-1.91,3.48-3.39,5.25-5.06,1.02-.96,2.08-1.54,3.2-.16,1.01,1.24,3,2.19.95,4.23-1.49,1.49-2.71,3.26-4.13,4.83-1.56,1.71-1.96,3.5-.87,5.6.32.62.83,1.45.65,1.96-.42,1.17-1.12,2.27-1.94,3.2-.12.14-1.66-.7-2.27-1.34-1.18-1.25-2.21-2.65-3.22-4.05C.86,158.91.58,158.08,0,156.91Z"/><path class="cls-1" d="m45.8,191.78c-.21.7-.39,1.54-.71,2.32-.88,2.08-1.81,4.13-2.76,6.18-.29.63-.59,1.33-1.09,1.78-.67.61-1.54,1.01-2.32,1.51-.16-.91-.56-1.85-.43-2.72.33-2.3.71-4.62,1.4-6.83.71-2.27,1.76-4.44,2.76-6.6.18-.38.89-.75,1.31-.7.42.05.99.57,1.11.99.34,1.28.48,2.61.73,4.09Z"/><path class="cls-1" d="m59.88,8.77c0,1.18.09,2.36-.04,3.52-.06.52-.55,1-.84,1.5-.44-.36-1.23-.7-1.26-1.1-.25-2.8-.39-5.61-.43-8.42,0-.37.94-1.15,1.2-1.05.54.19,1.24.81,1.31,1.32.18,1.39.06,2.81.06,4.22Z"/><path class="cls-1" d="m60.42,20.22c-.61,1.26-1.12,3.11-1.55,3.09-2.02-.1-1.6-1.93-1.56-3.22.03-1.32-.77-3.33,1.45-3.43.48-.02,1.06,2.21,1.66,3.56Z"/></svg>